<svg width="16" height="16" viewBox="0 0 16 16" fill="none" xmlns="http://www.w3.org/2000/svg">
<path d="M11.5 10.5C11.1406 10.3428 9.36949 11.517 8 11.5C6.2991 11.4789 4.9464 10.3047 4.5 10.5L1.45455 11.8636C0.648728 12.2162 0.648721 12.7838 1.45455 13.1364L6.54546 15.3636C7.35127 15.7162 8.64872 15.7162 9.45455 15.3636L14.5455 13.1364C15.3513 12.7838 15.3513 12.2162 14.5455 11.8636L11.5 10.5ZM6.54546 10.9091C6.94837 11.0854 6.94837 11.3692 6.54546 11.5455L5.81818 11.8636C5.41527 12.0399 4.76655 12.0399 4.36364 11.8636C3.96073 11.6874 3.96073 11.4035 4.36364 11.2273L5.09091 10.9091C5.49382 10.7328 6.14255 10.7328 6.54546 10.9091ZM11.6364 13.1364C12.0393 13.3126 12.0393 13.5965 11.6364 13.7727L10.9091 14.0909C10.5062 14.2672 9.85746 14.2672 9.45455 14.0909C9.05164 13.9146 9.05164 13.6308 9.45455 13.4545L10.1818 13.1364C10.5847 12.9601 11.2335 12.9601 11.6364 13.1364ZM4.36364 12.5L8 14.0909C7.74469 14.2027 7.40982 14.2757 7.02907 14.3026C6.64832 14.3296 6.23511 14.3095 5.83098 14.2444C5.42692 14.1793 5.04618 14.0716 4.72702 13.9319C4.40786 13.7923 4.16154 13.6257 4.0128 13.4489C3.86404 13.2721 3.81815 13.0914 3.87973 12.9248C3.94132 12.7582 4.10821 12.6117 4.36364 12.5Z" fill="#D695F7"/>
<path d="M11.5 6.5C11.1406 6.34275 9.36949 7.51697 8 7.5C6.2991 7.47892 4.9464 6.3047 4.5 6.5L1.45455 7.86364C0.648728 8.21618 0.648721 8.78382 1.45455 9.13636L6.54546 11.3636C7.35127 11.7162 8.64872 11.7162 9.45455 11.3636L14.5455 9.13636C15.3513 8.78382 15.3513 8.21619 14.5455 7.86364L11.5 6.5ZM6.54546 6.90909C6.94837 7.08536 6.94837 7.36918 6.54546 7.54545L5.81818 7.86364C5.41527 8.03991 4.76655 8.03991 4.36364 7.86364C3.96073 7.68736 3.96073 7.40355 4.36364 7.22727L5.09091 6.90909C5.49382 6.73282 6.14255 6.73282 6.54546 6.90909ZM11.6364 9.13636C12.0393 9.31264 12.0393 9.59645 11.6364 9.77273L10.9091 10.0909C10.5062 10.2672 9.85746 10.2672 9.45455 10.0909C9.05164 9.91464 9.05164 9.63082 9.45455 9.45455L10.1818 9.13636C10.5847 8.96009 11.2335 8.96009 11.6364 9.13636ZM4.36364 8.5L8 10.0909C7.74469 10.2027 7.40982 10.2757 7.02907 10.3026C6.64832 10.3296 6.23511 10.3095 5.83098 10.2444C5.42692 10.1793 5.04618 10.0716 4.72702 9.93193C4.40786 9.7923 4.16154 9.62572 4.0128 9.44895C3.86404 9.27214 3.81815 9.09136 3.87973 8.92478C3.94132 8.7582 4.10821 8.6117 4.36364 8.5Z" fill="#D695F7"/>
<path d="M9.45455 1.63636C8.64873 1.28382 7.35128 1.28381 6.54545 1.63636L1.45455 3.86364C0.648728 4.21618 0.64872 4.78382 1.45455 5.13636L6.54545 7.36364C7.35127 7.71618 8.64872 7.71619 9.45455 7.36364L14.5455 5.13636C15.3513 4.78382 15.3513 4.21619 14.5455 3.86364L9.45455 1.63636ZM6.54545 2.90909C6.94836 3.08536 6.94836 3.36918 6.54545 3.54545L5.81818 3.86364C5.41527 4.03991 4.76655 4.03991 4.36364 3.86364C3.96073 3.68736 3.96073 3.40355 4.36364 3.22727L5.09091 2.90909C5.49382 2.73282 6.14255 2.73282 6.54545 2.90909ZM11.6364 5.13636C12.0393 5.31264 12.0393 5.59645 11.6364 5.77273L10.9091 6.09091C10.5062 6.26718 9.85745 6.26718 9.45455 6.09091C9.05164 5.91464 9.05164 5.63082 9.45455 5.45455L10.1818 5.13636C10.5847 4.96009 11.2335 4.96009 11.6364 5.13636ZM4.36364 4.5L8 6.09091C7.74469 6.20266 7.40982 6.27567 7.02907 6.30262C6.64832 6.32956 6.23511 6.30948 5.83098 6.2444C5.42692 6.17933 5.04618 6.07156 4.72702 5.93193C4.40786 5.7923 4.16154 5.62572 4.0128 5.44895C3.86404 5.27214 3.81814 5.09136 3.87973 4.92478C3.94132 4.7582 4.10821 4.6117 4.36364 4.5Z" fill="#D695F7"/>
</svg>
