<svg width="16" height="16" viewBox="0 0 16 16" fill="none" xmlns="http://www.w3.org/2000/svg">
<g clip-path="url(#clip0_4_2)">
<path d="M14 12.5C13.6978 12.3489 12.3022 12.3489 12 12.5L10.5455 13.2273C10.2433 13.3784 10.2433 13.6216 10.5455 13.7727L12.4545 14.7273C12.7567 14.8784 13.2433 14.8784 13.5455 14.7273L15.4545 13.7727C15.7567 13.6216 15.7567 13.3784 15.4545 13.2273L14 12.5ZM12.4545 12.8182C12.6056 12.8937 12.6056 13.0154 12.4545 13.0909L12.1818 13.2273C12.0307 13.3028 11.7875 13.3028 11.6364 13.2273C11.4853 13.1517 11.4853 13.0301 11.6364 12.9545L11.9091 12.8182C12.0602 12.7426 12.3035 12.7426 12.4545 12.8182ZM14.3636 13.7727C14.5147 13.8483 14.5147 13.9699 14.3636 14.0455L14.0909 14.1818C13.9398 14.2574 13.6965 14.2574 13.5455 14.1818C13.3944 14.1063 13.3944 13.9846 13.5455 13.9091L13.8182 13.7727C13.9693 13.6972 14.2125 13.6972 14.3636 13.7727ZM11.6364 13.5L13 14.1818C12.9043 14.2297 12.7787 14.261 12.6359 14.2726C12.4931 14.2841 12.3382 14.2755 12.1866 14.2476C12.0351 14.2197 11.8923 14.1735 11.7726 14.1137C11.6529 14.0538 11.5606 13.9825 11.5048 13.9067C11.449 13.8309 11.4318 13.7534 11.4549 13.682C11.478 13.6107 11.5406 13.5479 11.6364 13.5Z" fill="#D695F7"/>
<path d="M13.5455 10.2727C13.2433 10.1216 12.7567 10.1216 12.4545 10.2727L10.5455 11.2273C10.2433 11.3784 10.2433 11.6216 10.5455 11.7727L12.4545 12.7273C12.7567 12.8784 13.2433 12.8784 13.5455 12.7273L15.4545 11.7727C15.7567 11.6216 15.7567 11.3784 15.4545 11.2273L13.5455 10.2727ZM12.4545 10.8182C12.6056 10.8937 12.6056 11.0154 12.4545 11.0909L12.1818 11.2273C12.0307 11.3028 11.7875 11.3028 11.6364 11.2273C11.4853 11.1517 11.4853 11.0301 11.6364 10.9545L11.9091 10.8182C12.0602 10.7426 12.3035 10.7426 12.4545 10.8182ZM14.3636 11.7727C14.5147 11.8483 14.5147 11.9699 14.3636 12.0455L14.0909 12.1818C13.9398 12.2574 13.6965 12.2574 13.5455 12.1818C13.3944 12.1063 13.3944 11.9846 13.5455 11.9091L13.8182 11.7727C13.9693 11.6972 14.2125 11.6972 14.3636 11.7727ZM11.6364 11.5L13 12.1818C12.9043 12.2297 12.7787 12.261 12.6359 12.2726C12.4931 12.2841 12.3382 12.2755 12.1866 12.2476C12.0351 12.2197 11.8923 12.1735 11.7726 12.1137C11.6529 12.0538 11.5606 11.9825 11.5048 11.9067C11.449 11.8309 11.4318 11.7534 11.4549 11.682C11.478 11.6107 11.5406 11.5479 11.6364 11.5Z" fill="#D695F7"/>
<path fill-rule="evenodd" clip-rule="evenodd" d="M6.96107 2.80252C7.51521 2.28748 8.24348 2.00089 9 2.00002C9.79565 2.00002 10.5587 2.31608 11.1213 2.87869C11.6839 3.4413 12 4.20438 12 5.00002C11.9992 5.42118 11.9098 5.83741 11.7375 6.2217C11.5652 6.606 11.3139 6.94973 11 7.23049V9H10C9.44772 9 9 9.44772 9 10V13H4C3.44599 13 3 12.554 3 12V9.82424C2.41576 9.61768 1.90982 9.23536 1.5517 8.72964C1.19358 8.22392 1.00085 7.6197 1 7.00002C1 6.20438 1.31607 5.4413 1.87868 4.87869C2.44129 4.31608 3.20435 4.00002 4 4.00002C4.74375 4.00083 5.46068 4.27783 6.0117 4.77737C6.06783 4.02293 6.40693 3.31755 6.96107 2.80252ZM14 9V7.00002L11 9H14Z" fill="#D695F7"/>
</g>
<defs>
<clipPath id="clip0_4_2">
<rect width="16" height="16" fill="white"/>
</clipPath>
</defs>
</svg>
