<svg width="16" height="16" viewBox="0 0 16 16" fill="none" xmlns="http://www.w3.org/2000/svg">
<g clip-path="url(#clip0_213_2)">
<path d="M9.29167 10.1667V11.9167H11.0417" stroke="#D695F7" stroke-linecap="round" stroke-linejoin="round"/>
<path d="M11.0451 14.6879C11.5188 15.0033 12.0822 15.1561 12.6504 15.1234C13.2186 15.0907 13.7608 14.8742 14.1952 14.5066C14.6297 14.139 14.9329 13.6401 15.0591 13.0852C15.1854 12.5303 15.1279 11.9493 14.8953 11.4299C14.6628 10.9105 14.2677 10.4807 13.7696 10.2054C13.2715 9.93005 12.6974 9.82403 12.1339 9.90333C11.5703 9.98262 11.0478 10.2429 10.645 10.645L9.29167 11.9167" stroke="#D695F7" stroke-linecap="round" stroke-linejoin="round"/>
</g>
<path fill-rule="evenodd" clip-rule="evenodd" d="M3.75736 3.75736C4.88258 2.63214 6.4087 2 8 2C9.5913 2 11.1174 2.63214 12.2426 3.75736C13.3679 4.88258 14 6.4087 14 8C14 8.33733 13.9716 8.67173 13.9161 9H11.873C11.9566 8.67606 12 8.34027 12 8C12 6.93913 11.5786 5.92172 10.8284 5.17157C10.0783 4.42143 9.06087 4 8 4C6.93913 4 5.92172 4.42143 5.17157 5.17157C4.42143 5.92172 4 6.93913 4 8C4 9.06087 4.42143 10.0783 5.17157 10.8284C5.92172 11.5786 6.93913 12 8 12V14C6.4087 14 4.88258 13.3679 3.75736 12.2426C2.63214 11.1174 2 9.5913 2 8C2 6.4087 2.63214 4.88258 3.75736 3.75736Z" fill="#D695F7"/>
<defs>
<clipPath id="clip0_213_2">
<rect width="7" height="7" fill="white" transform="translate(9 9)"/>
</clipPath>
</defs>
</svg>
